<svg width="222" height="42" viewBox="0 0 222 42" fill="none" xmlns="http://www.w3.org/2000/svg">
<g clip-path="url(#clip0_9_25)">
<path d="M97.7895 18.3584C97.8848 26.3955 97.9483 27.7615 98.4249 28.3969C99.3143 29.6675 100.204 30.0805 102.491 30.2711L104.715 30.4617V26.9038L103.063 26.8085L101.379 26.7132L101.284 17.8818L101.22 9.08229H97.6942L97.7895 18.3584Z" fill="white"/>
<path d="M107.891 10.8294V12.5765H111.068V9.08229H107.891V10.8294Z" fill="white"/>
<path d="M125.999 11.5919V14.1015L120.98 14.2286C113.578 14.3874 113.292 14.6733 113.292 22.2657C113.292 30.1441 113.324 30.1758 122.727 30.3029L129.493 30.43V9.08229H125.999V11.5919ZM125.999 22.2657V26.9038L121.488 26.8085L116.945 26.7132L116.85 22.6152C116.818 20.3279 116.85 18.2948 116.913 18.0725C117.041 17.7548 118.184 17.6595 121.552 17.6595H125.999V22.2657Z" fill="white"/>
<path d="M174.921 18.1995C174.921 30.2394 174.889 30.1758 181.115 30.1758L184.61 30.2076L184.705 28.5239L184.8 26.872H178.415V17.6595H184.769V14.1651H178.415V9.08229H174.921V18.1995Z" fill="white"/>
<path d="M58.811 10.6707C58.2708 10.9512 57.7863 11.328 57.3815 11.7825C56.6191 12.5767 56.5873 12.8308 56.5873 16.2617V19.8832L57.6356 20.8997L58.6522 21.9481L65.641 22.0434L72.6298 22.1387V26.872L66.3716 26.8085L60.0817 26.7132L59.9864 25.8237C59.8911 24.9977 59.7958 24.966 58.1439 24.966H56.4285V26.1414C56.4285 27.5391 57.318 29.191 58.398 29.7946C58.9063 30.0805 60.9712 30.2393 65.1327 30.3029C72.6298 30.4617 73.7099 30.3029 75.0759 28.9369L76.1242 27.8886V24.4259C76.1242 18.7713 75.8701 18.6125 66.594 18.6125H59.9229V13.8474H72.5981L72.6934 14.7051C72.7887 15.5311 72.9157 15.5946 74.4723 15.6899L76.1242 15.7852V14.2604C76.1478 13.4675 75.9731 12.6814 75.616 11.9731C74.5994 10.5436 73.4875 10.353 66.2128 10.3848C62.496 10.3848 59.1605 10.5118 58.811 10.6707Z" fill="white"/>
<path d="M132.988 20.3597V30.3664H140.707C144.932 30.3664 148.967 30.2076 149.666 30.0487C150.496 29.8483 151.247 29.406 151.826 28.7781C152.652 27.8568 152.684 27.6662 152.684 24.3942C152.684 22.0116 152.556 20.7727 152.271 20.3597C151.985 19.9467 151.858 18.9619 151.953 16.7382C152.08 14.2286 151.985 13.4979 151.508 12.5767C150.428 10.5118 149.697 10.353 140.866 10.353H132.988V20.3597ZM148.49 16.1346L148.586 18.2948H136.482V13.8474L142.454 13.9109L148.395 14.0062L148.49 16.1346ZM149.189 24.3306V26.872H136.482V21.7892H149.189V24.3306Z" fill="white"/>
<path d="M81.6834 14.613C79.5868 15.5342 79.4597 15.9154 79.3644 21.7921C79.2056 30.0512 79.3644 30.21 87.4012 30.21C93.3414 30.21 93.8179 30.083 94.8662 28.3676C95.438 27.4782 95.5015 26.7476 95.5015 22.2686C95.5015 14.5494 95.0886 14.1683 87.3377 14.1683C84.1611 14.1968 82.3187 14.3239 81.6834 14.613ZM92.0073 22.2686V26.8746H82.7952V17.6625H92.0073V22.2686Z" fill="white"/>
<path d="M107.891 22.2654V30.3657H111.068V14.1651H107.891V22.2654Z" fill="white"/>
<path d="M189.311 14.6416C187.31 15.4992 186.992 16.5475 186.992 22.2654C186.992 26.7443 187.056 27.475 187.628 28.3644C188.676 30.1433 189.057 30.2068 196.363 30.2068H203.034L203.13 28.5232L203.225 26.8714H190.487V24.0125H203.257L203.13 20.2323C203.034 16.0393 202.78 15.4675 200.747 14.6098C199.318 13.9776 190.709 14.0062 189.311 14.6416ZM199.699 19.0888V20.5182H190.487V17.6593H199.699V19.0888Z" fill="white"/>
<path d="M208.372 14.3874C207.99 14.451 207.228 15.0228 206.688 15.6263C205.799 16.6428 205.735 16.8969 205.735 19.1206C205.735 20.8041 205.894 21.7254 206.243 22.2971C207.228 23.7901 208.149 24.0125 213.518 24.0125H218.473L218.378 25.3467L218.283 26.7126L213.74 26.8079C209.928 26.8714 209.198 26.8079 209.039 26.3949C208.912 26.0455 208.403 25.9185 207.292 25.9185C205.799 25.9185 205.735 25.9502 205.735 26.8397C205.735 28.1103 207.101 29.6351 208.531 30.048C209.833 30.3975 216.631 30.461 218.537 30.1751C219.37 30.0428 220.137 29.6425 220.721 29.0348C221.306 28.4271 221.677 27.6453 221.777 26.8079C222.095 24.6796 221.682 22.8372 220.665 21.6618L219.776 20.6771L214.407 20.5183L209.071 20.3594V17.8182L213.613 17.7229C217.425 17.6593 218.156 17.7229 218.314 18.1358C218.473 18.4852 218.982 18.6123 220.252 18.6123H221.999L221.777 17.564C221.675 16.8972 221.397 16.2694 220.973 15.7448C220.549 15.2202 219.993 14.8176 219.363 14.578C218.346 14.2286 209.982 14.0698 208.372 14.3874Z" fill="white"/>
<path d="M155.543 20.6774C155.543 30.0805 155.606 30.144 163.23 30.3347L168.25 30.43V33.2255H158.402V36.7834L163.993 36.6564L169.584 36.5611L170.664 35.3857L171.744 34.1785V14.4827H168.25V26.9038L163.739 26.8085L159.196 26.7132L159.101 20.5821L159.037 14.4827H155.543V20.6774Z" fill="white"/>
<path d="M2.97011 19.3588C4.61046 19.3588 5.94023 18.029 5.94023 16.3887C5.94023 14.7483 4.61046 13.4185 2.97011 13.4185C1.32976 13.4185 0 14.7483 0 16.3887C0 18.029 1.32976 19.3588 2.97011 19.3588Z" fill="white"/>
<path d="M25.9316 13.7521C25.3525 13.9561 24.8544 14.3413 24.5111 14.8505C24.1678 15.3596 23.9976 15.9658 24.0257 16.5793C24.0257 17.6911 24.1845 18.0723 25.0104 18.7393C26.3128 19.8511 27.0435 19.7876 29.1082 18.3899C30.4106 17.5005 31.2683 17.1828 32.539 17.0875C34.0637 16.9604 34.3496 17.0557 36.1603 18.2628C37.2086 18.9617 38.4474 19.5653 38.8286 19.5653C40.004 19.5653 41.5922 17.9452 41.5922 16.7699C41.5922 14.8957 39.7816 13.2438 38.1933 13.7203C37.4262 14.0777 36.6927 14.5029 36.0014 14.991C34.699 15.8804 34.159 16.071 32.7613 16.071C31.3636 16.071 30.8236 15.8804 29.4894 14.9592C27.8058 13.8156 26.7258 13.4344 25.9316 13.7521Z" fill="white"/>
<path d="M26.2239 19.5335C27.8642 19.5335 29.194 18.2037 29.194 16.5634C29.194 14.923 27.8642 13.5933 26.2239 13.5933C24.5836 13.5933 23.2538 14.923 23.2538 16.5634C23.2538 18.2037 24.5836 19.5335 26.2239 19.5335Z" fill="white"/>
<path d="M39.0737 19.5621C40.7141 19.5621 42.0439 18.2323 42.0439 16.592C42.0439 14.9516 40.7141 13.6218 39.0737 13.6218C37.4334 13.6218 36.1036 14.9516 36.1036 16.592C36.1036 18.2323 37.4334 19.5621 39.0737 19.5621Z" fill="white"/>
<path d="M6.89987 24.9342C5.91509 25.919 5.72448 27.0626 6.35983 28.238C7.34462 30.0805 9.18713 30.2393 11.5061 28.651C13.9522 26.9991 15.9536 26.9991 18.3361 28.6192C20.3375 30.017 21.4493 30.0487 23.1965 28.778C25.8332 26.872 27.5804 26.872 30.4395 28.778C32.0279 29.8264 33.4256 29.9852 34.5057 29.2228C36.793 27.6344 35.5223 24.0129 32.695 24.0129C32.1867 24.0129 31.6467 24.1718 31.5514 24.3306C31.4561 24.4894 30.5983 25.093 29.7089 25.6013C27.3581 26.9673 25.9603 26.872 23.4824 25.2836C22.4024 24.5848 21.1952 24.0129 20.814 24.0129C20.4328 24.0129 19.3527 24.553 18.3997 25.1883C16.9066 26.2367 16.4301 26.3955 14.9053 26.3955C13.3804 26.3955 12.8721 26.2367 11.3791 25.1883C9.25066 23.7588 8.17057 23.6953 6.89987 24.9342Z" fill="white"/>
<path d="M6.89987 28.8162C5.91509 27.8314 5.72448 26.6878 6.35983 25.5124C7.34462 23.6699 9.18713 23.511 11.5061 25.0994C13.9522 26.7513 15.9536 26.7513 18.3361 25.1312C20.3375 23.7334 21.4493 23.7016 23.1965 24.9723C25.8332 26.8784 27.5804 26.8784 30.4395 24.9723C32.0279 23.924 33.4256 23.7652 34.5057 24.5276C36.793 26.116 35.5223 29.7374 32.695 29.7374C32.1867 29.7374 31.6467 29.5786 31.5514 29.4198C31.4561 29.2609 30.5983 28.6573 29.7089 28.1491C27.3581 26.7831 25.9603 26.8784 23.4824 28.4667C22.4024 29.1656 21.1952 29.7374 20.814 29.7374C20.4328 29.7374 19.3527 29.1974 18.3997 28.562C16.9066 27.5137 16.4301 27.3549 14.9053 27.3549C13.3804 27.3549 12.8721 27.5137 11.3791 28.562C9.25066 29.9916 8.17057 30.0551 6.89987 28.8162Z" fill="white"/>
<path d="M20.8837 29.7562C22.475 29.7562 23.7649 28.4663 23.7649 26.875C23.7649 25.2838 22.475 23.9939 20.8837 23.9939C19.2925 23.9939 18.0026 25.2838 18.0026 26.875C18.0026 28.4663 19.2925 29.7562 20.8837 29.7562Z" fill="white"/>
<path d="M32.8093 29.7562C34.4005 29.7562 35.6904 28.4663 35.6904 26.875C35.6904 25.2838 34.4005 23.9939 32.8093 23.9939C31.218 23.9939 29.9281 25.2838 29.9281 26.875C29.9281 28.4663 31.218 29.7562 32.8093 29.7562Z" fill="white"/>
<path d="M8.7359 29.7562C10.3271 29.7562 11.6171 28.4663 11.6171 26.875C11.6171 25.2838 10.3271 23.9939 8.7359 23.9939C7.14468 23.9939 5.85474 25.2838 5.85474 26.875C5.85474 28.4663 7.14468 29.7562 8.7359 29.7562Z" fill="white"/>
<path d="M20.0134 3.41499C19.4342 3.61904 18.9361 4.00416 18.5929 4.51335C18.2496 5.02253 18.0794 5.62871 18.1075 6.24215C18.1075 7.35396 18.2663 7.73515 19.0922 8.40223C20.3946 9.51404 21.1252 9.45051 23.19 8.05281C24.4924 7.16336 25.3501 6.8457 26.6207 6.75041C28.1455 6.62334 28.4314 6.71864 30.2421 7.92574C31.2903 8.62459 32.5292 9.22815 32.9104 9.22815C34.0857 9.22815 35.674 7.60809 35.674 6.43275C35.674 4.55856 33.8634 2.90673 32.2751 3.38322C31.508 3.74055 30.7745 4.16579 30.0832 4.65386C28.7808 5.5433 28.2408 5.7339 26.8431 5.7339C25.4454 5.7339 24.9054 5.5433 23.5712 4.62209C21.9003 3.4944 20.8203 3.09733 20.0134 3.41499Z" fill="white"/>
<path d="M20.3214 9.19638C21.9618 9.19638 23.2915 7.86661 23.2915 6.22626C23.2915 4.58592 21.9618 3.25615 20.3214 3.25615C18.6811 3.25615 17.3513 4.58592 17.3513 6.22626C17.3513 7.86661 18.6811 9.19638 20.3214 9.19638Z" fill="white"/>
<path d="M33.1714 9.22497C34.8118 9.22497 36.1415 7.8952 36.1415 6.25486C36.1415 4.61451 34.8118 3.28474 33.1714 3.28474C31.5311 3.28474 30.2013 4.61451 30.2013 6.25486C30.2013 7.8952 31.5311 9.22497 33.1714 9.22497Z" fill="white"/>
<path d="M13.9775 34.547C13.3984 34.7511 12.9003 35.1362 12.557 35.6454C12.2137 36.1545 12.0435 36.7607 12.0716 37.3742C12.0716 38.486 12.2304 38.8672 13.0563 39.5342C14.3587 40.646 15.0894 40.5825 17.1541 39.1848C18.4565 38.2954 19.3142 37.9777 20.5849 37.8824C22.1096 37.7554 22.3955 37.8506 24.2062 39.0578C25.2544 39.7566 26.4933 40.3602 26.8745 40.3602C28.0498 40.3602 29.6381 38.7401 29.6381 37.5648C29.6381 35.6906 27.8275 34.0387 26.2392 34.5152C25.4721 34.8726 24.7386 35.2978 24.0473 35.7859C22.7449 36.6753 22.2049 36.8659 20.8072 36.8659C19.4095 36.8659 18.8695 36.6753 17.5353 35.7541C15.8644 34.6264 14.7844 34.2293 13.9775 34.547Z" fill="#808080"/>
<path d="M14.2857 40.3284C15.926 40.3284 17.2558 38.9986 17.2558 37.3583C17.2558 35.7179 15.926 34.3882 14.2857 34.3882C12.6453 34.3882 11.3156 35.7179 11.3156 37.3583C11.3156 38.9986 12.6453 40.3284 14.2857 40.3284Z" fill="#808080"/>
<path d="M27.1355 40.357C28.7759 40.357 30.1056 39.0273 30.1056 37.3869C30.1056 35.7466 28.7759 34.4168 27.1355 34.4168C25.4952 34.4168 24.1654 35.7466 24.1654 37.3869C24.1654 39.0273 25.4952 40.357 27.1355 40.357Z" fill="#808080"/>
<path d="M14.9909 19.6637C16.6312 19.6637 17.961 18.334 17.961 16.6936C17.961 15.0533 16.6312 13.7235 14.9909 13.7235C13.3505 13.7235 12.0208 15.0533 12.0208 16.6936C12.0208 18.334 13.3505 19.6637 14.9909 19.6637Z" fill="#808080"/>
<path d="M8.76455 9.03119C10.4049 9.03119 11.7347 7.70142 11.7347 6.06107C11.7347 4.42073 10.4049 3.09096 8.76455 3.09096C7.1242 3.09096 5.79443 4.42073 5.79443 6.06107C5.79443 7.70142 7.1242 9.03119 8.76455 9.03119Z" fill="#808080"/>
<path d="M48.1244 0H47.6733V41.8027H48.1244V0Z" fill="#808080"/>
</g>
<defs>
<clipPath id="clip0_9_25">
<rect width="222" height="41.8027" fill="white"/>
</clipPath>
</defs>
</svg>
